<svg width="106" height="104" viewBox="0 0 106 104" fill="none" xmlns="http://www.w3.org/2000/svg">
<ellipse cx="53" cy="52" rx="53" ry="52" fill="#1353F5"/>
<path d="M44.2292 62.972L45.668 66.5489L35.2353 70.7453L33.7965 67.1684L44.2292 62.972ZM28.4979 49.4449L36.8109 70.1116L32.1836 71.9729L23.8706 51.3062L28.4979 49.4449ZM46.2042 48.4903L52.3819 63.8483L47.9391 65.6354L41.7615 50.2773L46.2042 48.4903ZM39.8931 46.4114C39.6343 45.768 39.6502 45.1514 39.9407 44.5618C40.2274 43.9628 40.7398 43.5148 41.4779 43.2179C42.216 42.921 42.8959 42.8894 43.5176 43.123C44.145 43.3434 44.5881 43.7754 44.8469 44.4188C45.1019 45.0528 45.0813 45.6713 44.7851 46.2741C44.4946 46.8638 43.9803 47.307 43.2422 47.6039C42.5041 47.9008 41.8261 47.9371 41.2082 47.7129C40.5865 47.4793 40.1481 47.0454 39.8931 46.4114ZM59.6933 57.2629L57.9854 43.7514L62.6411 41.8787L63.723 59.2865L60.9267 60.4112L59.6933 57.2629ZM52.7052 45.8753L60.8204 56.8261L62.1049 59.9374L59.3086 61.0621L48.0353 47.7537L52.7052 45.8753ZM77.6055 54.0322C76.3848 54.5232 75.2138 54.7689 74.0926 54.7691C72.9713 54.7694 71.9377 54.564 70.9918 54.1529C70.0516 53.7286 69.2256 53.1373 68.5138 52.3792C67.8021 51.6211 67.2407 50.731 66.8296 49.709L66.6127 49.1697C66.1521 48.0247 65.8886 46.9049 65.8221 45.8103C65.7556 44.7156 65.8871 43.6898 66.2167 42.7327C66.552 41.7623 67.0958 40.9004 67.8482 40.147C68.5967 39.3842 69.553 38.7687 70.7169 38.3005C71.8051 37.8628 72.8474 37.6524 73.8437 37.6694C74.8361 37.677 75.759 37.894 76.6121 38.3204C77.4614 38.7373 78.224 39.3485 78.8998 40.1541C79.5813 40.9464 80.1523 41.915 80.6129 43.06L81.3437 44.8769L68.9664 49.8555L67.8188 47.0025L75.8527 43.7709L75.7157 43.4303C75.4987 42.8909 75.209 42.4577 74.8466 42.1307C74.4937 41.8 74.0842 41.6019 73.6182 41.5365C73.1578 41.4578 72.6437 41.5327 72.0759 41.7611C71.5365 41.978 71.1327 42.2724 70.8645 42.6441C70.5963 43.0159 70.4371 43.4537 70.3869 43.9576C70.3424 44.4483 70.3832 44.987 70.5093 45.5739C70.6317 46.1514 70.8184 46.7524 71.0697 47.3769L71.2866 47.9163C71.5264 48.5124 71.8257 49.0242 72.1845 49.4515C72.5433 49.8789 72.9492 50.2048 73.4023 50.4294C73.8555 50.6539 74.3443 50.776 74.869 50.7959C75.3937 50.8157 75.9399 50.7114 76.5077 50.483C77.2079 50.2014 77.8218 49.8005 78.3492 49.2806C78.8728 48.7511 79.2504 48.1045 79.4819 47.3408L82.5077 48.8776C82.3781 49.4575 82.1151 50.0745 81.7186 50.7287C81.3278 51.3696 80.793 51.9805 80.1141 52.5614C79.4353 53.1423 78.5991 53.6325 77.6055 54.0322Z" fill="white"/>
</svg>
